# xmcd CD database file
#
# Track frame offsets:
#	150
#	13515
#	24725
#	45050
#	56357
#	66902
#	79972
#	106605
#	120050
#	134462
#	157110
#	175562
#	199522
#	213927
#	231990
#
# Disc length: 3269 seconds
#
# Revision: 3
# Processed by: cddbd v1.5.2PL0 Copyright (c) Steve Scherf et al.
# Submitted via: CDex 1.78
#
DISCID=b40cc30f
DTITLE=Skladanka Blues - Blues Story #14
DYEAR=1998
DGENRE=Blues
TTITLE0=Johnny Winter - Ain't Like Just Like A Women
TTITLE1=Freddie King - Hideaway
TTITLE2=Clarence "Gatemouth" Brown - The Peeper
TTITLE3=Omar and The Howlers - Shake For Me
TTITLE4=Larry Garner - Last Encore
TTITLE5=LeadBelly - Good Morning Blues
TTITLE6=Storyville - Bitter Rain
TTITLE7=Lightnin' Hopkins - Katie May
TTITLE8=T Bone Walker - Louisiana Bayou Drive
TTITLE9=Neal Black - Misery
TTITLE10=Jimmy Spacek - Sweet Texas Soul
TTITLE11=Marc Benno - Take It Back To Texas
TTITLE12=Rory Block - Come On Im My Kitchen
TTITLE13=Long John Hunter - Road Hog
TTITLE14=Del Dragons - I Must Be Dreamin'
EXTD=YEAR: 1998
EXTT0=
EXTT1=
EXTT2=
EXTT3=
EXTT4=
EXTT5=
EXTT6=
EXTT7=
EXTT8=
EXTT9=
EXTT10=
EXTT11=
EXTT12=
EXTT13=
EXTT14=
PLAYORDER=
